<svg width="51" height="50" viewBox="0 0 51 50" fill="none" xmlns="http://www.w3.org/2000/svg">
<rect x="0.857056" width="49.2857" height="50" rx="24.6429" fill="#FDFDFD" fill-opacity="0.6"/>
<path d="M23.2741 17.6557C22.9985 17.4965 22.6864 17.4132 22.369 17.4143C22.0516 17.4154 21.7401 17.5008 21.4656 17.6619C21.1911 17.823 20.9632 18.0542 20.8047 18.3324C20.6463 18.6106 20.5628 18.926 20.5627 19.247V30.7549C20.5628 31.0759 20.6463 31.3913 20.8047 31.6695C20.9632 31.9477 21.1911 32.1789 21.4656 32.34C21.7401 32.5012 22.0516 32.5865 22.369 32.5876C22.6864 32.5887 22.9985 32.5055 23.2741 32.3462L33.2277 26.5914C33.5049 26.431 33.7352 26.1993 33.8955 25.9199C34.0557 25.6404 34.1401 25.3231 34.1401 25C34.1401 24.677 34.0557 24.3597 33.8955 24.0802C33.7352 23.8008 33.5049 23.5691 33.2277 23.4087L23.2741 17.6557Z" fill="#1A3E3E"/>
</svg>
